<svg width="32" height="32" viewBox="0 0 32 32" xmlns="http://www.w3.org/2000/svg">
  <!-- Background circle with gradient -->
  <defs>
    <linearGradient id="bgGradient" x1="0%" y1="0%" x2="100%" y2="100%">
      <stop offset="0%" style="stop-color:#6366f1;stop-opacity:1" />
      <stop offset="100%" style="stop-color:#8b5cf6;stop-opacity:1" />
    </linearGradient>
    <linearGradient id="sGradient" x1="0%" y1="0%" x2="100%" y2="100%">
      <stop offset="0%" style="stop-color:#ffffff;stop-opacity:1" />
      <stop offset="100%" style="stop-color:#e0e7ff;stop-opacity:1" />
    </linearGradient>
  </defs>
  
  <!-- Main background circle -->
  <circle cx="16" cy="16" r="15" fill="url(#bgGradient)" stroke="#4f46e5" stroke-width="1"/>
  
  <!-- S letter -->
  <path d="M12 8 C12 8, 16 8, 20 8 C22 8, 24 10, 24 12 C24 14, 22 16, 20 16 C18 16, 16 16, 14 16 C12 16, 10 18, 10 20 C10 22, 12 24, 14 24 C16 24, 18 24, 20 24 C22 24, 24 22, 24 20" 
        fill="none" stroke="url(#sGradient)" stroke-width="3" stroke-linecap="round"/>
  
  <!-- Network nodes -->
  <circle cx="8" cy="8" r="2" fill="#fbbf24" opacity="0.8"/>
  <circle cx="24" cy="8" r="2" fill="#fbbf24" opacity="0.8"/>
  <circle cx="8" cy="24" r="2" fill="#fbbf24" opacity="0.8"/>
  <circle cx="24" cy="24" r="2" fill="#fbbf24" opacity="0.8"/>
  
  <!-- Connection lines -->
  <line x1="10" y1="10" x2="22" y2="10" stroke="#fbbf24" stroke-width="1" opacity="0.6"/>
  <line x1="10" y1="22" x2="22" y2="22" stroke="#fbbf24" stroke-width="1" opacity="0.6"/>
  <line x1="10" y1="10" x2="10" y2="22" stroke="#fbbf24" stroke-width="1" opacity="0.6"/>
  <line x1="22" y1="10" x2="22" y2="22" stroke="#fbbf24" stroke-width="1" opacity="0.6"/>
  
  <!-- Center highlight -->
  <circle cx="16" cy="16" r="3" fill="#ffffff" opacity="0.3"/>
</svg> 